<?xml version="1.0" encoding="UTF-8"?>
<svg version="1.1" viewBox="0 0 1600 464" width="1280" height="1280" xmlns="http://www.w3.org/2000/svg">
<path transform="translate(915 13.7)" d="m0 0c2.52 0.01 5.04-0 7.56-0.01 1.64 0 3.27 0 4.9 0.01 1.11-0.01 1.11-0.01 2.24-0.02 6.41 0.06 12.4 1.26 18.4 3.28v2c1.33 0.12 1.33 0.12 2.68 0.25 3.78 0.86 5.43 2.24 8.32 4.75 0.99 0.46 0.99 0.46 2 0.94 5.3 2.82 9.23 8.53 13.1 13 1.11 1.24 2.24 2.46 3.41 3.62 4.01 4.05 8.09 8.59 8.46 14.5h2c0.61 1.48 1.21 2.96 1.81 4.44 0.34 0.82 0.67 1.65 1.02 2.49 2.68 7.04 4.74 14 6.23 21.4 0.24 1.15 0.24 1.15 0.49 2.32 0.93 4.55 1.75 9.1 2.51 13.7 0.17 1.07 0.35 2.14 0.53 3.24 0.2 1.21 0.2 1.21 0.41 2.45 0.82 0 1.65 0.01 2.5 0.01 7.8 0.04 15.6 0.1 23.4 0.17 4.01 0.04 8.02 0.08 12 0.09 3.87 0.02 7.74 0.05 11.6 0.1 1.48 0.01 2.95 0.02 4.42 0.02 2.08 0.01 4.15 0.03 6.22 0.06 1.17 0.01 2.35 0.02 3.56 0.03 4.89 0.78 7.91 3.37 11.6 6.5 2.7 4.89 2.27 9.83 2.28 15.3 0.01 1.25 0.03 2.51 0.05 3.8 0.04 3.48 0.06 6.95 0.08 10.4 0.01 3.02 0.04 6.05 0.07 9.07 0.09 9.69 0.14 19.4 0.18 29.1 0.01 2.92 0.03 5.84 0.04 8.76 0.1 18 0.09 35.9 0.03 53.9-0.05 13.3-0.07 26.6-0.07 39.9 0 16.4-0.03 32.8-0.08 49.2-0.02 9.32-0.04 18.6-0.03 28 0 8.04-0.01 16.1-0.05 24.1-0.02 4.18-0.03 8.37-0.01 12.6 0.01 3.89 0 7.78-0.04 11.7-0.01 1.42 0 2.84 0.01 4.26 0.02 1.93-0.01 3.86-0.03 5.79 0 1.08-0.01 2.16-0.01 3.27-0.84 3.22-1.96 4.98-4.67 6.96-4.63 2.09-9.78 1.62-14.8 1.57-1.29 0.01-2.58 0.01-3.91 0.02-3.58 0.02-7.16 0.01-10.7-0.01-3.86-0.01-7.73 0-11.6 0.01-7.57 0.02-15.1 0.01-22.7 0-6.15-0.02-12.3-0.02-18.4-0.02h-2.65c-1.77 0-3.55 0-5.33 0.01-15.7 0-31.4-0.01-47.1-0.04-15.2-0.03-30.5-0.04-45.8-0.02-16.6 0.01-33.2 0.02-49.8 0-1.77 0-3.54 0-5.31-0.01h-2.64c-6.14 0-12.3 0-18.4 0.01-7.48 0-15 0-22.4-0.03-3.82-0.01-7.64-0.02-11.5-0.01-4.13 0.02-8.27 0-12.4-0.02-1.21 0-2.42 0.01-3.66 0.02-8.11-0.08-8.11-0.08-12-2.38-2.72-3.19-4.09-5.16-4.16-9.33-0.02-0.85-0.04-1.7-0.06-2.57-0.01-0.93-0.02-1.87-0.03-2.83-0.02-0.98-0.04-1.97-0.06-2.98-0.06-3.3-0.1-6.6-0.15-9.9-0.03-2.35-0.07-4.7-0.11-7.05-0.4-26.1-0.44-52.2-0.44-78.2 0-4.07 0-8.15-0.01-12.2 0-13.6-0.01-27.1-0.01-40.6v-2.18-2.18c0-11.8-0.01-23.6-0.02-35.4-0.02-12.2-0.02-24.4-0.02-36.6 0-6.81 0-13.6-0.01-20.4-0.01-6.37-0.01-12.7-0.01-19.1v-6.99c-0.01-3.18-0.01-6.36 0-9.54 0-0.92-0.01-1.84-0.02-2.79 0.03-5.12 0.41-9.43 2.27-14.2 2.93-2.31 2.93-2.31 6-4 1.48-0.99 1.48-0.99 3-2 14.6-2.24 29.8-0.89 44.5-0.56 2.57 0.05 5.15 0.1 7.73 0.16 6.25 0.12 12.5 0.26 18.8 0.4-0.01-0.67-0.01-1.34-0.01-2.03-0.01-1.33-0.01-1.33-0.01-2.69-0.01-0.87-0.01-1.75-0.01-2.65 0.09-7.66 1.65-14.4 4.03-21.6 0.26-0.9 0.53-1.81 0.8-2.74 3.95-12.9 10.3-27.8 20.2-37.3 0.61-0.63 1.23-1.26 1.86-1.91 17.5-17.1 17.5-17.1 26.1-17.1v-3c10.7-1.76 21.1-2.32 31.9-2.26zm-42.6 33.4c-13.4 14.5-21.2 29.4-23 49-0.32 3.31-0.77 6.54-1.36 9.81 2.55 1.27 4.32 1.12 7.17 1.12 1.1 0 2.2 0 3.33 0.01 1.2-0.01 2.41-0.01 3.66-0.02h3.84c3.48 0 6.97 0 10.4-0.01 3.64 0 7.28 0 10.9-0.01 6.89 0 13.8-0.01 20.7-0.02 7.85-0.01 15.7-0.01 23.5-0.02 16.1-0.01 32.3-0.03 48.4-0.05 3.68-16.9-3.59-34.1-12.1-48.4-8.11-12.5-19.6-21.4-33.9-25.6h-4v-2c-20.9-2.01-41.7 1.08-57.7 16.2zm-40.3 40.8 1 2zm-83 32 1 2zm101 17c-2.4 3.67-1.73 5.81-1 10 0.11 2.37 0.17 4.75 0.18 7.13 0.02 1.19 0.03 2.39 0.05 3.63-0.22 3.04-0.63 4.69-2.23 7.24-1.94-0.11-3.88-0.24-5.82-0.37-1.07-0.07-2.15-0.14-3.26-0.22-2.92-0.41-2.92-0.41-5.92-2.41-0.33-1.94-0.33-1.94-0.26-4.28 0.02-1.26 0.02-1.26 0.04-2.55 0.03-0.88 0.06-1.76 0.09-2.67 0.05-1.74 0.08-3.48 0.12-5.22 0.02-0.77 0.05-1.54 0.07-2.34 0.07-2.02 0.07-2.02-1.06-3.94-3.19-0.35-4.57-0.32-7.19 1.63-4.19 5.48-4.64 11.7-3.81 18.4 1.79 5.85 4.9 9.57 10 13 6.3 3.18 12.1 4.03 19 2 5.76-2.35 9.35-7.2 12.4-12.4 1.53-6.94 0.9-13.3-2.43-19.6-1.99-3.04-3.82-5.55-7.32-6.87-0.83-0.07-0.83-0.07-1.68-0.13zm123 4.29c-3.75 3.89-5.34 8.39-5.65 13.7 0.64 6.34 2.59 11.3 7 16 1.97 1.36 1.97 1.36 4 2 0.58 0.34 1.16 0.67 1.76 1.02 5.16 2.27 11.6 1.9 16.8 0.07 5.81-3.03 9.52-6.71 12.7-12.5 1.77-6.75 0.69-11.5-2.05-17.8-1.52-2.26-2.71-2.95-5.26-3.88h-3c0.02 1.3 0.04 2.6 0.07 3.95 0.02 1.72 0.03 3.45 0.05 5.18 0.02 0.85 0.04 1.71 0.05 2.59 0.01 1.26 0.01 1.26 0.02 2.54 0.02 1.15 0.02 1.15 0.03 2.32-0.22 2.42-0.22 2.42-2.22 8.42h-13v-3h-2c0.04-0.69 0.08-1.37 0.12-2.08 0.18-3.1 0.34-6.2 0.5-9.29 0.07-1.08 0.13-2.16 0.2-3.28 0.05-1.03 0.1-2.06 0.15-3.12 0.06-0.96 0.11-1.91 0.16-2.89 0.12-2.53 0.12-2.53-2.13-4.34-4.08 0-5.41 1.65-8.35 4.29z" fill="#EE1B21"/>
<path transform="translate(39,99)" d="m0 0h103c4.51 11.3 4.51 11.3 6.19 16.2 0.38 1.11 0.76 2.21 1.16 3.35 0.4 1.17 0.8 2.34 1.21 3.55 0.32 0.94 0.32 0.94 0.65 1.89 1.6 4.68 3.2 9.36 4.79 14 0.33 0.97 0.33 0.97 0.67 1.97 7.85 23.2 15.3 46.4 22.6 69.8 0.69 2.21 1.39 4.42 2.08 6.63 2.45 7.77 4.81 15.6 7.07 23.4 1.9 6.59 3.83 13.2 5.83 19.7 3.27 10.7 6.19 21.5 9.08 32.3 1.53 5.76 3.11 11.5 4.73 17.2 1.28 4.56 2.49 9.13 3.68 13.7 0.31 1.18 0.62 2.36 0.93 3.58 0.61 2.35 1.22 4.7 1.81 7.05 0.42 1.6 0.42 1.6 0.85 3.24 0.25 0.96 0.49 1.92 0.75 2.91 0.93 2.52 1.85 3.73 3.9 5.44 0.22-0.97 0.44-1.94 0.66-2.95 4.4-19.2 9.89-38.1 15.4-57 1.18-4.01 2.35-8.02 3.52-12 0.58-2 1.16-4 1.75-6 1.45-4.99 2.9-9.97 4.33-15 3.28-11.4 6.73-22.6 10.4-33.9 2.09-6.49 4.07-13 5.91-19.6 4.91-17.5 10.3-34.8 16.1-51.9 2.12-6.32 4.11-12.7 5.98-19.1 1.9-6.45 3.92-12.8 6.13-19.2 0.37-1.08 0.37-1.08 0.75-2.18 1.04-2.93 1.77-4.97 4-7.2 1.9-0.25 1.9-0.25 4.26-0.25 0.89 0 1.78-0.01 2.7-0.01 1.48 0.01 1.48 0.01 2.98 0.02 1.03 0 2.07-0.01 3.13-0.01 3.43 0 6.85 0.01 10.3 0.02h7.11c4.98 0 9.95 0.01 14.9 0.02 6.4 0.02 12.8 0.03 19.2 0.02 4.9 0 9.79 0.01 14.7 0.02h7.07c3.29 0.01 6.58 0.01 9.87 0.02h2.98c0.89 0.01 1.78 0.01 2.7 0.02h2.36c1.77 0.13 1.77 0.13 2.77 1.13 0.1 1.77 0.12 3.54 0.12 5.31 0.01 1.16 0.01 2.31 0.01 3.51 0 1.29-0.01 2.58-0.01 3.9v4.12c0.01 3.78 0 7.56 0 11.3-0.01 4.08-0.01 8.15-0.01 12.2v21.2c-0.01 10.2-0.01 20.4-0.02 30.6 0 16.6-0.01 33.1-0.01 49.7-0.01 16.1-0.02 32.2-0.03 48.3v3 14.9c-0.01 41.3-0.03 82.6-0.05 124-9.5 0.02-19 0.04-28.5 0.05-4.41 0.01-8.82 0.01-13.2 0.03-4.25 0.01-8.5 0.01-12.8 0.01-1.62 0.01-3.25 0.01-4.87 0.02h-6.82c-1.29 0.01-2.58 0.01-3.92 0.01-2.89-0.12-2.89-0.12-3.89-1.12-0.1-1.41-0.12-2.83-0.12-4.25-0.01-0.92-0.01-1.84-0.01-2.79 0-1.02 0.01-2.05 0.01-3.1v-3.27c0-3.65 0-7.29 0.01-10.9v-7.8-16.8c0.01-8.12 0.01-16.2 0.02-24.4 0-13.2 0.01-26.4 0.01-39.5 0.01-12.8 0.02-25.6 0.03-38.4v-2.39-11.9c0.01-32.8 0.03-65.7 0.05-98.5h-1c-0.18 0.79-0.35 1.58-0.53 2.4-3.24 14.6-6.54 29.2-10.2 43.7-0.41 1.66-0.41 1.66-0.82 3.35-1.66 6.58-3.54 13.1-5.57 19.5-1.21 3.95-2.27 7.93-3.3 11.9-0.42 1.64-0.85 3.28-1.28 4.92-0.22 0.84-0.43 1.68-0.66 2.55-4.27 16.3-8.91 32.4-13.7 48.6-0.33 1.11-0.66 2.22-0.99 3.37-2.03 6.85-4.06 13.7-6.1 20.6l-2.4 8.13c-3.64 12.3-7.59 24.6-11.6 36.8-2.29 7.07-4.54 14.2-6.75 21.2-11.1 35.8-11.1 35.8-13.2 37.9-1.89 0.12-3.78 0.17-5.67 0.19-1.81 0.03-1.81 0.03-3.67 0.05-5.54 0.05-11.1 0.09-16.6 0.11-3.66 0.02-7.32 0.06-11 0.11-2.8 0.04-5.61 0.05-8.42 0.05-2.01 0.01-4.01 0.05-6.02 0.08-1.82 0-1.82 0-3.69-0.01-1.61 0.02-1.61 0.02-3.25 0.03-2.67-0.61-2.67-0.61-4.47-2.96-1.35-2.98-2.42-5.95-3.4-9.08-0.29-0.92-0.29-0.92-0.59-1.86-0.64-2.01-1.27-4.02-1.9-6.02-0.66-2.1-1.33-4.2-2-6.3-0.45-1.42-0.9-2.83-1.35-4.25-2.05-6.44-4.18-12.9-6.34-19.3-2.28-6.81-4.51-13.6-6.58-20.5-1.09-3.54-2.22-7.07-3.35-10.6-4.41-13.7-8.54-27.5-12.7-41.3-1.63-5.46-3.27-10.9-4.92-16.4-0.7-2.36-1.41-4.72-2.11-7.08-0.37-1.23-0.73-2.46-1.11-3.72-3.08-10.4-5.97-20.8-8.77-31.2-0.43-1.63-0.87-3.27-1.32-4.91-0.65-2.45-1.31-4.9-1.97-7.35-1.23-4.58-2.47-9.15-3.72-13.7-2.6-9.53-5.12-19.1-7.47-28.6-0.2-0.83-0.41-1.66-0.62-2.51-1.01-4.12-2.01-8.24-3-12.4-0.37-1.5-0.73-3-1.1-4.5-0.17-0.7-0.33-1.4-0.5-2.12-0.41-1.66-0.91-3.31-1.42-4.94l-2-1c0.07 0.74 0.14 1.48 0.21 2.24 0.63 6.92 0.93 13.8 0.91 20.7v3.13c0 3.42 0 6.83-0.01 10.2v7.4 15.9c-0.01 7.64-0.02 15.3-0.02 22.9 0 12.4-0.01 24.8-0.01 37.2-0.01 12-0.02 24.1-0.03 36.1v2.25 11.2c-0.01 30.9-0.03 61.8-0.05 92.7h-71c-1.28-2.56-1.13-4.36-1.13-7.23v-3.38-3.75-3.96c-0.01-3.63 0-7.27 0-10.9v-11.8c-0.01-7.69-0.01-15.4-0.01-23 0.01-6.24 0.01-12.5 0.01-18.7v-2.69c0-1.8 0-3.61-0.01-5.41 0-16.9 0.01-33.9 0.01-50.8 0.01-14.5 0-29 0-43.6-0.01-16.9-0.01-33.7 0-50.6v-5.4-2.68c0-6.23 0-12.5-0.01-18.7 0-7.6 0-15.2 0.01-22.8v-11.6c-0.01-4.21 0-8.42 0-12.6v-3.7-3.44-2.94c0.17-4.45 0.69-8.87 1.13-13.3z"/>
<path transform="translate(483,99)" d="m0 0h220c1.3 2.59 1.12 4.46 1.11 7.37v3.39c0 1.22-0.01 2.43-0.01 3.69 0 1.86 0 1.86-0.01 3.75 0 3.3-0.01 6.6-0.02 9.9-0.01 3.36-0.02 6.73-0.02 10.1-0.01 6.6-0.03 13.2-0.05 19.8-3.37 1.02-6.44 1.12-9.95 1.12h-3.69c-1.34 0-2.69 0-4.03-0.01h-4.26c-3.85 0-7.7 0-11.6-0.01-4.03 0-8.05-0.01-12.1-0.01-7.62 0-15.2-0.01-22.9-0.02-10.3-0.01-20.6-0.02-30.9-0.02-16.2-0.01-32.4-0.03-48.7-0.05l1 73c13.1-0.02 13.1-0.02 26.4-0.04 6.21 0 12.4-0.01 18.6-0.01 8.06-0.01 16.1-0.01 24.2-0.03 6.37-0.01 12.8-0.01 19.1-0.01 3.38-0.01 6.76-0.01 10.1-0.02h11.3c1.13-0.01 2.25-0.01 3.42-0.01h3.09 2.7c2.01 0.12 2.01 0.12 3.01 1.12v58l-122 1-1 83c11.5-0.02 11.5-0.02 23.2-0.04 4.96 0 9.92-0.01 14.9-0.01 7.81 0 15.6-0.01 23.4-0.03 31.2-0.05 62.3 0.19 93.4 1.08v57h-228v-333z"/>
<path transform="translate(1250,99)" d="m0 0h61c4.47 8.93 4.47 8.93 6 13.9 1.13 3.6 2.38 7.11 3.8 10.6 2.39 5.91 4.57 11.9 6.75 17.9 3.5 9.62 7.03 19.2 10.7 28.8 3.38 8.81 6.66 17.6 9.9 26.5 1.39 3.77 2.77 7.54 4.16 11.3 0.29 0.77 0.57 1.54 0.86 2.34 2.1 5.7 4.21 11.4 6.33 17.1 4.56 12.3 9.09 24.6 13.6 36.9 2.52 6.89 5.05 13.8 7.59 20.6 2.8 7.59 5.57 15.2 8.33 22.8 3.02 8.32 6.07 16.6 9.13 24.9 0.83 2.25 1.66 4.5 2.49 6.75 2.94 7.99 5.89 16 8.86 24 4.58 12.4 9.13 24.7 13.6 37.1 2.88 7.88 5.81 15.7 8.83 23.6 1.02 2.93 1.02 2.93 2.02 7.93h-74c-5.24-14-10.2-27.7-14-42.1-1.35-5.14-2.9-10.2-4.48-15.3-1.03-3.4-1.57-6.03-1.57-9.63-58.4 0.5-58.4 0.5-118 1-5.06 15.7-10.1 31.5-15.1 47.2-2.11 6.32-4.53 12.5-6.92 18.8h-73c2.25-6.75 2.25-6.75 3.48-10.1 0.27-0.74 0.55-1.48 0.83-2.25 0.29-0.78 0.58-1.56 0.88-2.37 0.63-1.7 1.26-3.41 1.89-5.11 0.32-0.87 0.64-1.73 0.97-2.62 0.9-2.44 1.79-4.87 2.68-7.31 3.02-8.22 6.08-16.4 9.21-24.6 3.82-9.98 7.47-20 11.1-30 1.5-4.12 3.01-8.22 4.52-12.3 0.29-0.77 0.57-1.53 0.86-2.33 1.16-3.14 2.32-6.28 3.48-9.42 0.91-2.46 1.82-4.92 2.72-7.37 0.3-0.8 0.59-1.59 0.89-2.4 1.74-4.71 3.44-9.43 5.11-14.2 2.9-8.13 5.97-16.2 9.26-24.2 1.81-4.52 3.41-9.09 5-13.7 7.93-22.9 16.5-45.6 25.1-68.2 4.71-12.4 9.24-24.8 13.8-37.2 1.35-3.71 2.72-7.41 4.1-11.1 2.98-8.04 5.86-16.1 8.62-24.2 1.61-4.69 3.43-9.21 5.53-13.7 1.14-2.68 2.03-5.47 2.95-8.23zm30 100c-4.19 9.81-7.46 20-10.9 30.1-0.65 1.95-1.31 3.89-1.97 5.83-1.02 3-2.04 6.01-3.06 9.01-2.35 6.93-4.71 13.8-7.08 20.8-0.64 1.86-1.28 3.73-1.92 5.59-0.91 2.66-1.82 5.32-2.74 7.98-0.84 2.46-1.68 4.92-2.52 7.37-0.25 0.71-0.49 1.41-0.74 2.14-1.84 5.38-3.49 10.8-5.09 16.3 9.22 0.15 18.4 0.3 27.7 0.44l12.8 0.21c4.13 0.07 8.27 0.13 12.4 0.19 1.57 0.03 3.15 0.05 4.73 0.08 2.2 0.04 4.41 0.07 6.62 0.1 1.25 0.02 2.51 0.04 3.8 0.06 2.87 0.13 2.87 0.13 4.94-1.08-0.64-4.61-1.81-8.79-3.3-13.2-0.23-0.69-0.47-1.38-0.7-2.09-0.77-2.28-1.54-4.56-2.31-6.83-0.54-1.61-1.08-3.22-1.62-4.82-1.13-3.35-2.25-6.69-3.38-10-1.88-5.6-3.75-11.2-5.61-16.8-1.98-5.98-3.97-11.9-5.97-17.9-1.16-3.46-2.31-6.92-3.46-10.4-1.23-3.71-2.47-7.41-3.71-11.1-0.36-1.09-0.72-2.18-1.09-3.31-0.33-0.98-0.67-1.97-1.01-2.98-0.29-0.86-0.57-1.71-0.86-2.59-0.88-2.29-0.88-2.29-3.98-2.93z"/>
<path transform="translate(923,167)" d="m0 0c0.99 0.5 0.99 0.5 2 1 1.34 0.19 2.69 0.34 4.04 0.46 0.81 0.08 1.62 0.16 2.45 0.24 1.69 0.16 3.38 0.31 5.06 0.46 14.6 1.42 14.6 1.42 20.4 4.84 3.88 8.97 1.45 19.6-0.53 28.7-0.43 2.1-0.72 4.17-0.97 6.3-0.5 3-0.5 3-2.5 5-2.82-0.19-5.52-0.48-8.31-0.88-12.6-1.55-23.4-1.52-35.7 1.88-1.37 0.34-1.37 0.34-2.76 0.69-5.8 1.55-10.4 3.84-15.2 7.31-0.68 0.45-1.36 0.91-2.06 1.38-9.48 6.6-13.4 14.8-16.9 25.6-0.31 0.91-0.62 1.83-0.94 2.77-1.97 6.67-2.49 13.3-2.87 20.2-0.06 0.92-0.11 1.84-0.16 2.79-0.04 0.87-0.08 1.75-0.11 2.65-0.04 0.78-0.07 1.56-0.1 2.37 0.21 2.51 1 3.99 2.18 6.19 0.37 1.35 0.69 2.71 0.96 4.08 0.17 0.77 0.33 1.54 0.49 2.33l0.96 4.77c1.04 4.95 2.48 9.22 4.59 13.8 0.59 1.56 1.17 3.12 1.75 4.69 6.07 15.1 15.8 27.8 29.2 37.1 0.99 0.72 1.98 1.45 3 2.19v2c0.92 0.29 0.92 0.29 1.86 0.59 0.81 0.26 1.62 0.52 2.45 0.79 0.8 0.25 1.6 0.51 2.43 0.77 2.26 0.85 2.26 0.85 5.26 2.85 13.2 3.76 27.7 5.1 40.8 0.66 2.2-0.66 2.2-0.66 6.2-0.66v-2c2.02-1.36 4.02-2.6 6.12-3.81 4.63-2.75 8.9-5.55 12.9-9.19-0.31-1.42-0.62-2.83-0.94-4.25-0.17-0.79-0.35-1.58-0.52-2.39-0.49-2.13-1-4.25-1.54-6.36h-2c-0.99-3.3-1.98-6.6-3-10h-2c-0.19-0.78-0.39-1.56-0.59-2.37-0.26-1.01-0.52-2.02-0.79-3.07-0.25-1.01-0.51-2.02-0.77-3.06-0.58-2.66-0.58-2.66-2.85-3.5-0.72-1.64-1.39-3.31-2-5-5.71 0.5-9.74 2.11-14.8 4.81-15.6 8.07-15.6 8.07-23.2 8.31-3.99-1.46-5.24-3.48-7.06-7.12-0.38-0.68-0.75-1.36-1.14-2.06-3.16-5.93-5.52-12.1-7.8-18.4-0.98-2.69-1.95-5.32-3.24-7.88-0.82-1.65-0.82-1.65-0.76-3.71 1.99-4.11 7.69-5.89 11.6-7.88 0.95-0.48 1.9-0.96 2.88-1.46 3.55-1.66 7.13-3.11 10.8-4.54 4.42-1.76 8.79-3.63 13.2-5.5 0.87-0.37 1.75-0.74 2.64-1.12 5.29-2.26 10.4-4.68 15.6-7.31 2.4-1.17 4.82-2.16 7.31-3.13 1.36-0.56 2.71-1.12 4.07-1.69 0.73-0.31 1.46-0.61 2.22-0.93 1.52-0.63 3.04-1.26 4.56-1.9 1.1-0.46 1.1-0.46 2.22-0.92 0.66-0.28 1.32-0.55 1.99-0.84 1.96-0.73 3.9-1.25 5.94-1.72 8.22 16.3 8.22 16.3 11.1 22.9 1.13 2.6 2.31 5.18 3.49 7.76 2.18 4.8 4.36 9.59 6.26 14.5 2.79 7.16 6.03 14.1 9.31 21 1.76 3.73 3.47 7.49 5.18 11.2 1.31 2.79 2.67 5.53 4.07 8.27 0.41 0.83 0.82 1.66 1.25 2.51 0.81 1.62 1.63 3.23 2.47 4.84 2.79 5.62 4.05 10.7 2.9 17-1.83 2.95-1.83 2.95-4.25 5.25-3.84 3.76-3.84 3.76-7 8.06-2.92 4.49-6.02 7.32-10.8 9.69l-1 3c-1.53 1.54-1.53 1.54-3.5 3.19-2.26 1.9-4.49 3.8-6.64 5.83-4.74 4.45-9.45 7.64-15.2 10.6-2.35 1.22-4.54 2.55-6.75 3.99-4.1 2.62-8.41 4.51-12.9 6.38-1.11 0.5-2.23 0.99-3.38 1.5-14.1 5.83-14.1 5.83-21.6 6.32-1.96 0.12-1.96 0.12-3.78 0.68-2.45 0.56-4.65 0.63-7.15 0.63-0.96 0-1.92 0.01-2.91 0.01-1.01-0.01-2.02-0.01-3.07-0.02-1.03 0-2.07 0-3.13-0.01-28-0.18-28-0.18-32.9-5.11-1.57-0.51-3.15-0.96-4.75-1.38-4.39-1.25-7.55-2.9-11.2-5.62-1.09-0.6-2.19-1.2-3.31-1.81-4.6-2.58-8.6-5.89-12.7-9.19-0.62-0.47-1.23-0.94-1.87-1.42-2.34-1.82-3.94-3.09-5.01-5.89-0.04-0.56-0.08-1.12-0.12-1.69l-4-1v-2l-4-2v-2c-0.59-0.24-1.19-0.48-1.8-0.72-2.67-1.55-3.74-3.13-5.39-5.72-0.51-0.78-1.02-1.56-1.54-2.37-1.27-2.19-1.27-2.19-2.27-5.19-0.45-0.43-0.91-0.87-1.38-1.31-2.19-2.29-3.25-4.84-4.62-7.69-0.68-1.11-0.68-1.11-1.38-2.25-3.36-5.69-6.18-11.6-8.62-17.8-0.57-1.21-0.57-1.21-1.15-2.45-3.61-7.88-5.34-15.8-6.96-24.2-0.49-2.58-1.07-4.84-1.94-7.33-2.53-7.96-2.1-16.5-2.07-24.7-0.01-1.11-0.01-2.22-0.02-3.36 0-1.07 0.01-2.15 0.01-3.25v-2.92c0.13-2.67 0.55-5.11 1.13-7.72 0.12-1.33 0.22-2.67 0.31-4 1.04-9.75 4.94-19 8.69-28 0.73-1.83 1.46-3.67 2.19-5.5 1.55-3.91 2.83-6.52 5.81-9.5l1-2h2c0.27-0.76 0.54-1.53 0.81-2.31 1.15-2.6 2.14-3.82 4.19-5.69l1-2c1.33-1 2.67-2 4-3l1-2c1.66-1.01 3.33-2.01 5-3 1.26-0.92 2.51-1.86 3.75-2.81 20.1-15.2 20.1-15.2 29.2-15.2l1-3c1.09-0.12 2.19-0.25 3.31-0.38 3.37-0.41 6.67-0.98 10-1.62 4.82-0.91 9.59-1.41 14.5-1.75l11.2-1.25z" fill="#FDFDFD"/>
<path transform="translate(891,141)" d="m0 0c4.06 0.47 7.47 0.88 11 3l2-2c1.88 0 1.88 0 4 1 2.25 3.06 2.25 3.06 4 6l-2 1v2c0.62-0.19 1.24-0.37 1.88-0.56 2.12-0.44 2.12-0.44 4.12 0.56v2l-5-1c1.92 3.13 1.92 3.13 5.16 4.61 1.22 0.07 1.22 0.07 2.46 0.14 1.32 0.09 1.32 0.09 2.67 0.18 3.3 0.09 6.59 0.06 9.9-0.09 1.81 0.16 1.81 0.16 3.81 2.16 4.42-0.36 8.66-1.11 13-2h2v3c0.96 0.16 0.96 0.16 1.93 0.33 1.24 0.24 1.24 0.24 2.51 0.48 0.82 0.15 1.64 0.3 2.49 0.46 1.03 0.36 1.03 0.36 2.07 0.73l1 3h2v2c0.99 0.33 1.98 0.66 3 1v2c0.5 0.47 0.99 0.95 1.5 1.44 1.5 1.56 1.5 1.56 1.5 4.56 0.16 0.76 0.33 1.53 0.5 2.31 0.5 2.69 0.5 2.69 0.38 5.69-0.13 3.03-0.13 3.03 1.56 5.31 2.16 3.72 2.53 7.42 2.56 11.7l-1 3c0.74 0.93 0.74 0.93 1.5 1.88 1.5 2.12 1.5 2.12 1.38 4.74-0.88 2.38-0.88 2.38-3.88 4.38h3l1 3-4 1c1.11 0.29 2.23 0.58 3.38 0.88 3.87 1.2 4.85 2.35 7.62 5.12 3.05 0.16 3.05 0.16 6-1 2.19 0.44 2.19 0.44 4 1v-2c0.52 0.14 1.03 0.29 1.56 0.44 2.58 0.63 2.58 0.63 5.82 1 6.62 1.03 6.62 1.03 9.62 2.56 1.38 3.62 1.38 3.62 2 7l8 2c-0.99 0.5-0.99 0.5-2 1 1.7 6.21 3.78 10 8 15 0.77 1.89 1.53 3.79 2.19 5.73 0.96 2.68 2.12 5.24 3.31 7.83 0.43 0.94 0.86 1.87 1.3 2.84 0.7 1.53 1.41 3.05 2.12 4.58 1.61 3.59 2.67 7.1 3.54 10.9 0.58 2.26 1.32 4.41 2.1 6.6 1.44 4.18 2.04 8.11 2.44 12.5h2c0.4 0.88 0.8 1.76 1.21 2.67 0.53 1.16 1.06 2.32 1.6 3.52 0.52 1.15 1.05 2.29 1.58 3.48 1.5 3.27 1.5 3.27 3.27 5.91 1.54 2.79 1.8 4.76 1.96 7.92 0.17 2.72 0.32 5.24 0.95 7.89 1.33 8.07-0.88 20.3-4.57 27.6-1.65 1.74-3.36 3.13-5.28 4.56-2.84 2.38-4.13 5.12-5.72 8.44v2l2 1v5h-2v5c-3.26 0.89-5.24 0.96-8.62 0.38-3.33-0.76-3.33-0.76-5.32 1.06-0.35 0.51-0.7 1.03-1.06 1.56 0.99 0.33 1.98 0.66 3 1l1-3c3.02 1.01 4.19 1.46 6 4-0.31 2.69-0.31 2.69-1 5h-5v4l-4 1v2c-0.78 0.12-1.57 0.25-2.38 0.38-2.76 0.41-2.76 0.41-4.62 2.62h-4c0.99 1.65 1.98 3.3 3 5l-4 1h3c2.19 1 2.19 1 4 2l-1 3h-3l-1 2c0.99 0.33 1.98 0.66 3 1-1.74 0.87-3.49 1.72-5.25 2.56-0.97 0.48-1.95 0.95-2.95 1.44-2.9 1.04-4 1.11-6.8 0v2c-15.6 1.11-31.3 1.16-46.9 1.13h-8.58c-15 0.02-29.9-0.04-44.9-0.4-1.37-0.03-2.75-0.06-4.12-0.08-1.9-0.04-3.79-0.09-5.68-0.14-1.07-0.03-2.15-0.05-3.25-0.08-1.26-0.21-1.26-0.21-2.54-0.43-2-3-2-3-3-5h-3v-3c-1.64-0.31-1.64-0.31-3.31-0.62-4.6-1.72-4.68-3.1-6.69-7.38-2.75-2.21-2.75-2.21-6-3-2.87 1.17-2.87 1.17-5 3l-4-4 2-5c-0.96-0.37-0.96-0.37-1.94-0.75-2.06-1.25-2.06-1.25-2.62-3.31-0.15-0.64-0.29-1.28-0.44-1.94-2.95-1.16-2.95-1.16-6-1h-1l-2-2 3-3c-2.64-1.41-5.07-2.37-8-3-0.5-2.48-0.5-2.48-1-5-1.39-0.34-1.39-0.34-2.81-0.69-3.77-1.55-4.35-2.8-6.19-6.31-1.49-0.99-1.49-0.99-3-2-1.49 0.99-1.49 0.99-3 2-3.8-4.13-4-8.56-4-14-0.33-0.91-0.66-1.81-1-2.75-1.36-4.41-1.47-8.32-0.38-12.8 0.51-3.27-0.51-5.35-1.62-8.44-1.2-6.41-1.2-6.41 0-10h-2c-4.9-11.7-6.99-23.5-9-36h-3c-2.11-2.89-3-4.38-3-8 0.35-0.95 0.7-1.9 1.06-2.88 1.01-3.35 0.73-4.8-0.06-8.12 0.44-2.31 0.44-2.31 1-4h2c0.5-0.99 0.5-0.99 1-2l1 1 2-10-2 7h-3c-1.25-7.62-1.25-7.62 1-11h2v2l3-3-2-1h2v-4h-2c-0.5 0.99-0.5 0.99-1 2-1.49 0.5-1.49 0.5-3 1 0-3 0-3 2-5-0.32-3.6-0.32-3.6-1-7 0.62-0.06 1.24-0.12 1.88-0.19 2.4-0.64 2.4-0.64 3.37-3.37 0.25-0.81 0.5-1.61 0.75-2.44h-2c1.78-13 1.78-13 4-17 3.12-1.81 3.12-1.81 6-3v-3c4.34-6.55 10.9-11.9 16.6-17.3 0.69-0.68 1.39-1.36 2.1-2.06 0.63-0.6 1.27-1.21 1.92-1.83 1.77-1.96 1.77-1.96 1.37-5.81l8-3-2-4c0.65-0.27 1.3-0.54 1.98-0.81 7.77-3.49 12.1-7.5 15.3-15.4 0.34-1.36 0.34-1.36 0.69-2.75 0.21-0.78 0.41-1.57 0.62-2.38 0.19-0.8 0.19-0.8 0.38-1.62h2v8c1.49 0.5 1.49 0.5 3 1v3c3.37 0.25 3.37 0.25 7 0 1.54-1.37 1.54-1.37 3-3 3.46-1.18 6.76-1.96 10.4-2.5 0.86-0.16 1.73-0.33 2.62-0.5l1-2c-1.49-0.5-1.49-0.5-3-1l-2 1c-0.69-1.81-0.69-1.81-1-4 1.44-1.75 1.44-1.75 3-3l-5-5h4c1.79-2.43 1.79-2.43 3-5zm23 27c-2.83 0.35-5.66 0.66-8.5 0.94-7.63 0.8-15.2 1.62-22.5 4.06v2c-1.03 0.15-1.03 0.15-2.08 0.3-10.8 2.57-20.6 9.86-29.2 16.5-0.72 0.55-1.44 1.1-2.18 1.67-0.63 0.49-1.26 0.98-1.91 1.49-1.59 1.07-1.59 1.07-3.59 1.07v3l-5 2v3c-1.65 1.69-3.31 3.35-5 5v2h-2c-0.5 0.82-0.99 1.65-1.5 2.5-0.5 0.82-0.99 1.65-1.5 2.5h-2c-0.15 1.02-0.15 1.02-0.31 2.06-0.66 2.82-1.64 5.3-2.81 7.94-4.48 10.2-8.94 20.8-9.7 32-0.18 2-0.18 2-0.68 4.28-0.89 4.85-0.69 9.74-0.69 14.7v3.39c-0.29 13.2-0.29 13.2 3.18 25.6 1.47 3.06 1.8 6.28 2.32 9.61 1.26 7.34 3.55 13.7 6.69 20.5 0.31 0.79 0.62 1.58 0.94 2.39 1.34 3.29 2.9 6.44 4.5 9.61 0.3 0.6 0.6 1.21 0.91 1.83 1.74 3.48 3.62 6.84 5.65 10.2 0.53 1.11 0.53 1.11 1.06 2.25 0.82 1.93 0.82 1.93 2.94 2.75 0.89 1.64 0.89 1.64 1.81 3.69 1.94 4.02 4.11 7.07 7.19 10.3h2l2 4h2l1 3h3c0.23 0.74 0.47 1.49 0.71 2.25 1.52 3.24 3.08 4.54 5.91 6.69 0.9 0.68 1.8 1.37 2.72 2.07 1.32 0.99 1.32 0.99 2.66 1.99 0.71 0.56 1.42 1.13 2.16 1.71 4.37 3.42 8.81 5.95 13.8 8.29 1.03 0.54 2.06 1.07 3.12 1.62 2.92 1.4 5.79 2.42 8.88 3.38 1.03 0.35 2.06 0.7 3.12 1.06 10.2 3.32 20.9 3.05 31.5 3.13 0.96 0.01 1.91 0.02 2.89 0.04 9.12 0.01 17.6-1.37 26.2-4.44 3.29-1.14 6.65-2.04 10-2.95 2.5-0.93 4.14-2.24 6.26-3.84 2.49-1.09 5.01-2 7.56-2.94 2.5-1.08 4.29-2.41 6.44-4.06 1.7-0.9 3.41-1.77 5.12-2.62 6.16-3.31 10.8-7.6 15.9-12.4 2.19-1.88 4.39-3.74 6.6-5.59 1.63-1.32 1.63-1.32 1.4-3.41 0.56-0.23 1.11-0.45 1.69-0.69 5.09-2.89 8.33-7.54 11.7-12.2 2.17-2.81 4.7-5.23 7.3-7.65 2.18-4.04 1.93-7.97 1.32-12.4-1.05-3.29-2.52-6.26-4.12-9.31-0.84-1.67-1.67-3.34-2.5-5.01-0.41-0.8-0.82-1.6-1.24-2.43-1.5-2.96-2.89-5.98-4.26-9-1.53-3.33-3.06-6.65-4.63-9.96-3.16-6.71-6.19-13.4-9-20.3-1.83-4.36-3.86-8.62-5.86-12.9-1.18-2.6-2.25-5.21-3.27-7.88-2.83-7.3-6.56-14.2-10.1-21.2l-1-2c-2.85 0.65-5.44 1.53-8.12 2.67-0.79 0.33-1.57 0.67-2.38 1.01-0.82 0.35-1.65 0.71-2.5 1.07-1.72 0.73-3.44 1.46-5.16 2.2-0.83 0.35-1.67 0.7-2.52 1.07-2.91 1.23-5.83 2.42-8.76 3.6-5.03 2.09-9.84 4.51-14.7 6.97-4.2 2.06-8.51 3.73-12.9 5.41-15 5.35-15 5.35-28 14 0.38 4.28 2.16 7.98 3.88 11.9 0.51 1.17 1.02 2.34 1.55 3.55 0.52 1.18 1.04 2.36 1.57 3.57 0.5 1.17 1 2.34 1.51 3.55 1.42 3.3 2.92 6.54 4.49 9.76 0.5 1.03 0.99 2.06 1.5 3.12 1.39 2.81 1.39 2.81 4.5 4.57 9.48 0 17.1-4.44 25.3-8.73 1.58-0.81 1.58-0.81 3.18-1.65 0.94-0.5 1.88-1 2.84-1.52 2.79-1.15 4.68-1.33 7.66-1.1 0.43 1.21 0.43 1.21 0.88 2.44 0.85 2.69 0.85 2.69 3.12 3.56 0.85 2.5 0.85 2.5 1.62 5.56 0.27 1.01 0.53 2.03 0.79 3.07 0.2 0.78 0.39 1.56 0.59 2.37h2c0.99 3.3 1.98 6.6 3 10h2c0.12 1.03 0.25 2.06 0.38 3.12 0.56 3.5 1.41 6.56 2.62 9.88-5.46 4.46-11 8.31-17.1 11.7-0.62 0.41-1.23 0.83-1.87 1.26v2c-0.8 0.12-1.61 0.25-2.44 0.38-3.63 0.57-3.63 0.57-7.37 1.68-11.9 2.65-25.6 1.53-37.2-2.06-1.36-0.97-2.7-1.96-4-3-2.11-0.77-2.11-0.77-4.25-1.19-1.24-0.27-2.48-0.53-3.75-0.81v-2c-1.48-1.1-3.01-2.13-4.56-3.12-5.05-3.45-8.66-7.13-12.4-11.9-0.64-0.73-1.27-1.45-1.93-2.2-8.19-9.61-14-20.6-17.1-32.8-0.49-1.46-0.99-2.92-1.5-4.38-7.46-22.1-6.87-42.6 2.98-63.8 3-5.39 6.62-9.13 11.5-12.8 0.8-0.7 1.61-1.4 2.44-2.12 6.6-4.83 13.7-7.01 21.6-8.88 0.81-0.21 1.63-0.42 2.47-0.63 10.9-2.52 21.7-1.45 32.6 0.09 1.97 0.26 3.94 0.41 5.92 0.54 2.83-2.83 2.56-5.18 3-9.12 0.94-8.11 0.94-8.11 2.19-12 1.2-5.76 1.51-13.5-1.19-18.9-9.16-4.17-19.4-5.18-29.3-5.75-2.69-0.25-2.69-0.25-4.69-1.25-4.65-0.31-4.65-0.31-9 1z" fill="#F82527"/>
<path transform="translate(923,167)" d="m0 0c0.99 0.5 0.99 0.5 2 1 1.34 0.19 2.69 0.34 4.04 0.46 0.81 0.08 1.62 0.16 2.45 0.24 1.69 0.16 3.38 0.31 5.06 0.46 14.6 1.42 14.6 1.42 20.4 4.84 3.88 8.97 1.45 19.6-0.53 28.7-0.43 2.1-0.72 4.17-0.97 6.3-0.5 3-0.5 3-2.5 5-2.82-0.19-5.52-0.48-8.31-0.88-12.6-1.55-23.4-1.52-35.7 1.88-1.37 0.34-1.37 0.34-2.76 0.69-5.08 1.36-9.11 3.23-13.5 6.17-2.14 1.39-4.35 2.31-6.76 3.14 5.84-8.52 15.1-12.1 25-14 12.9-1.9 26-2.4 39-3 0.2-1.13 0.41-2.26 0.62-3.43 0.27-1.48 0.55-2.96 0.82-4.45 0.13-0.74 0.27-1.49 0.41-2.26 1.04-5.63 1.04-5.63 2.15-7.86 0.07-2.04 0.08-4.08 0.06-6.12-0.01-1.1-0.02-2.2-0.02-3.33-0.02-0.84-0.03-1.68-0.04-2.55-0.62-0.12-1.23-0.24-1.87-0.37-0.85-0.16-1.69-0.33-2.57-0.51-0.82-0.16-1.64-0.32-2.49-0.49-1.67-0.34-3.34-0.7-4.99-1.14-6.5-1.65-12.7-1.75-19.4-1.68h-3.19c-10.6 0.06-20.9 0.76-31.2 3.25-1.21 0.28-1.21 0.28-2.44 0.57-1.94 0.45-3.87 0.91-5.81 1.37v1c-0.69 0.18-1.37 0.36-2.08 0.55-1.35 0.38-1.35 0.38-2.73 0.76-0.9 0.25-1.79 0.49-2.71 0.74-2.58 0.99-3.67 1.92-5.48 3.95-1.65 1.03-3.32 2.03-5 3-2.03 1.36-4.05 2.73-6.06 4.12-2.94 1.88-2.94 1.88-4.94 1.88v2h-2v2c-6.62 4-6.62 4-10 4 1.23-2.47 2.81-3.36 5-5l1-2c1.66-1.01 3.33-2.01 5-3 1.26-0.92 2.51-1.86 3.75-2.81 20.1-15.2 20.1-15.2 29.2-15.2l1-3c1.09-0.12 2.19-0.25 3.31-0.38 3.37-0.41 6.67-0.98 10-1.62 4.82-0.91 9.59-1.41 14.5-1.75l11.2-1.25z" fill="#FBF8F8"/>
<path transform="translate(894 18.9)" d="m0 0c0.89 0.02 1.78 0.04 2.7 0.05 1.02 0.04 1.02 0.04 2.05 0.07 0.5 0.99 0.5 0.99 1 2 2.02 0.66 2.02 0.66 4 1-0.33 2.32-0.66 4.63-1 7 0.66 0.33 1.32 0.67 2 1v2c-0.81 0.22-1.62 0.44-2.46 0.67-7.82 2.24-14.6 5.04-21.5 9.33-0.7 0.43-1.39 0.86-2.11 1.3-6.5 4.42-13.4 11.6-16.9 18.7-0.66-0.32-1.32-0.65-2-1 0.33-0.99 0.66-1.97 1-3-0.68-0.55-1.36-1.11-2.06-1.68-0.64-0.77-1.28-1.53-1.94-2.32 0.25-2.74 0.25-2.74 1-5 3.2-1.06 5.66-1.07 9-1 0.65-1.6 1.29-3.2 1.94-4.81 0.36-0.89 0.72-1.78 1.09-2.7 0.71-1.81 1.36-3.64 1.97-5.49 2.06-1.18 2.06-1.18 4-2v-4h2l1-2h1l1-3c2.06-0.68 2.06-0.68 4-1v-2c3.21-1.9 5.54-2.22 9.25-2.12z" fill="#DE191F"/>
<path transform="translate(917 252)" d="m0 0c0.56 0.68 1.11 1.36 1.69 2.06-0.63 2.88-0.63 2.88-2 6-3 1.32-3 1.32-6 2-0.99 0.5-0.99 0.5-2 1-0.15 0.66-0.29 1.32-0.44 2-0.19 0.66-0.37 1.32-0.56 2-0.99 0.33-1.98 0.66-3 1-1.11 1.89-1.11 1.89-2 4l-2 3v2h-3l-2 4-4-1c-1.12-3.34-0.81-5.6 0-9v-2l3-2v-3l2-1c0.6-0.68 1.19-1.36 1.81-2.06 2.19-1.94 2.19-1.94 4.94-2.19 0.74 0.08 1.48 0.17 2.25 0.25 0.29-0.95 0.57-1.89 0.87-2.87 1.13-3.13 1.13-3.13 3.13-5.13 3.48-1.28 4.39-1.51 7.31 0.94z" fill="#EF1B22"/>
<path transform="translate(1013,384)" d="m0 0c0.99 0.5 0.99 0.5 2 1-5.72 5.59-11.3 10-18.4 13.7-2.34 1.21-4.51 2.52-6.71 3.96-4.1 2.62-8.41 4.51-12.9 6.38-1.11 0.5-2.23 0.99-3.38 1.5-14.1 5.83-14.1 5.83-21.6 6.32-1.96 0.12-1.96 0.12-3.78 0.68-2.45 0.56-4.65 0.63-7.15 0.63-0.96 0-1.92 0.01-2.91 0.01-1.01-0.01-2.02-0.01-3.07-0.02-1.03 0-2.07 0-3.13-0.01-10.5-0.07-20.8-0.24-30.9-3.11l-1-2c0.68 0.07 1.35 0.14 2.05 0.21 8.05 0.76 16 0.98 24.1 0.98 2.12 0 4.24 0.02 6.36 0.03 16.6 0.08 16.6 0.08 32.5-4.22 1.03-0.26 2.06-0.51 3.12-0.77 5.33-1.49 10.1-4.27 14.9-6.85 1.02-0.54 2.03-1.08 3.08-1.63 14.4-6.97 14.4-6.97 26.9-16.8z" fill="#FBF9F9"/>
<path transform="translate(926,277)" d="m0 0-7 5c0.33 1.22 0.66 2.43 1 3.69 0.8 3.18 1.21 6.01 1 9.31h2c0.17 0.65 0.34 1.3 0.52 1.98 1.64 6.01 1.64 6.01 4.67 11.4 1.81 2.62 1.81 2.62 1.81 6.62h2v2c1.33-0.12 2.67-0.24 4-0.38 0.74-0.06 1.49-0.13 2.25-0.21 7.07-1.06 12.4-3.1 18.6-6.53 6.12-3.26 11.1-5.1 18.1-3.88 1.46 2.65 2 3.89 2 7h-3l-2-5c-5.71 0.5-9.74 2.11-14.8 4.81-15.6 8.07-15.6 8.07-23.2 8.31-3.99-1.46-5.24-3.48-7.06-7.12-0.38-0.68-0.75-1.36-1.14-2.06-3.16-5.93-5.52-12.1-7.8-18.4-0.98-2.69-1.95-5.32-3.24-7.88-0.82-1.65-0.82-1.65-0.76-3.71 2.32-4.8 7.26-6.11 11.9-4.94z" fill="#FBF9F9"/>
<path transform="translate(957,195)" d="m0 0h2c0.24 7.09 0.27 14.2-2 21-2.46 1.23-4.06 1.12-6.82 1.11h-3.03c-1.08 0-2.17-0.01-3.28-0.01s-2.22-0.01-3.36-0.01c-3.54 0-7.09-0.01-10.6-0.03-2.4 0-4.8-0.01-7.2-0.01-5.9-0.01-11.8-0.03-17.7-0.05v-2c0.89-0.2 1.78-0.41 2.7-0.62 1.17-0.27 2.34-0.54 3.55-0.82 1.16-0.26 2.32-0.53 3.52-0.81 1.77-0.41 3.55-0.84 5.3-1.34 8.73-1.87 18.4-0.17 27.1 0.97 1.94 0.24 3.88 0.44 5.83 0.62 1.99-1.99 1.68-5.7 2-8.44 0.87-7.29 0.87-7.29 2-9.56z" fill="#FC494B"/>
<path transform="translate(852,107)" d="m0 0h126v1c-14.8 0.33-29.7 0.66-45 1v1h-38v-1c-14.2-0.33-28.4-0.66-43-1v-1z" fill="#7B0E11"/>
<path transform="translate(957,415)" d="m0 0c0.5 1.49 0.5 1.49 1 3-7.71 4.11-15.8 4.32-24.4 4.25-0.96 0.01-1.92 0.02-2.92 0.02-17.1-0.04-17.1-0.04-21.5-3.84-0.59-0.71-0.59-0.71-1.19-1.43 2.66-1.33 4.22-0.88 7.19-0.56 6.52 0.55 13 0.71 19.6 0.75 1.45 0.02 1.45 0.02 2.94 0.04 5.41 0 10.3-0.44 15.5-1.8 1.77-0.43 1.77-0.43 3.77-0.43z" fill="#FC4A4C"/>
<path transform="translate(864,183)" d="m0 0 2 1c-3.56 6.52-8.09 8.7-15 11v2h-2v2c-6.62 4-6.62 4-10 4 1.23-2.47 2.81-3.36 5-5l1-2c1.66-1.01 3.33-2.01 5-3 2.02-1.48 4.01-2.99 6-4.5 2.6-1.95 5.28-3.73 8-5.5z" fill="#FCFBFB"/>
<path transform="translate(839,359)" d="m0 0c2 1.75 2 1.75 4 4v4h2v3h2v2h2v3c0.99 0.33 1.98 0.66 3 1 2.69 2.38 2.69 2.38 5 5v3h2v2c-0.99-0.33-1.98-0.66-3-1v-2l-4-2v-2c-0.89-0.36-0.89-0.36-1.8-0.72-2.67-1.55-3.74-3.13-5.39-5.72-0.51-0.78-1.02-1.56-1.54-2.37-1.27-2.19-1.27-2.19-2.27-5.19-1.5-1.67-1.5-1.67-3-3l1-3z" fill="#FBF9F9"/>
<path transform="translate(1e3 396)" d="m0 0c0.56 0.23 1.11 0.45 1.69 0.69h-2v2c-5.75 3-5.75 3-8 3v2c-1.93 1.03-3.87 2.05-5.81 3.06-1.08 0.57-2.16 1.14-3.27 1.72-2.92 1.22-2.92 1.22-5.92 0.22v-2c0.82-0.33 1.64-0.65 2.48-0.99 1.08-0.44 2.16-0.87 3.27-1.32 1.6-0.65 1.6-0.65 3.23-1.31 2.7-1.24 4.73-2.52 7.02-4.38 4.4-3.08 4.4-3.08 7.31-2.69z" fill="#FB3E40"/>
<path transform="translate(996,243)" d="m0 0h3c0.84 1.46 1.67 2.91 2.5 4.38 0.7 1.21 0.7 1.21 1.41 2.46 1.09 2.16 1.09 2.16 1.09 4.16h-2c-0.99-2.31-1.98-4.62-3-7-4.88 0.5-8.62 2.09-13 4.26-2.05 0.74-2.05 0.74-5.05-0.26 1.57-3.15 4.27-3.39 7.5-4.56 4.04-1.22 4.04-1.22 7.5-3.44z" fill="#FBFAFA"/>
<path transform="translate(870,250)" d="m0 0c1.16 3.7 0.55 6.07-0.48 9.79-0.87 3.7-0.99 7.42-1.14 11.2-0.04 0.77-0.08 1.55-0.12 2.35-0.1 1.88-0.18 3.77-0.26 5.65-2-2-2-2-2.27-4.69 0.04-8.45 0.18-16.7 4.27-24.3z" fill="#FBF9F9"/>
<path transform="translate(967,49)" d="m0 0c2.97 0.49 2.97 0.49 6 1 0.12 1.13 0.25 2.27 0.38 3.44 0.2 1.17 0.41 2.35 0.62 3.56l2 1c-1.75 0.75-1.75 0.75-4 1-2.25-1.94-2.25-1.94-4-4v2c-0.99-0.33-1.98-0.66-3-1 0-2 0-2 2-4v-3z" fill="#F82425"/>
<path transform="translate(1040,335)" d="M0 0 C4.09 5.2 5.49 8.89 5.4 15.52 C4.76 19.5 2.88 21.26 0 24 C0 21 0 21 1.69 17.44 C3.53 12.83 2.44 9.72 0.76 5.2 C0 3 0 3 0 0 Z " fill="#FBF9F9"/>
<path transform="translate(953,172)" d="m0 0c5.47 0.61 5.47 0.61 7.69 2.25 1.71 2.28 1.62 3.62 1.5 6.44-0.03 0.81-0.06 1.61-0.08 2.45-0.04 0.61-0.07 1.23-0.11 1.86l-4-1-1-10-4-1v-1z" fill="#FC4A4C"/>
<path transform="translate(820,317)" d="m0 0c3.75 3.75 3.69 7.98 4 13h2c2.12 4.62 2.12 4.62 1 8-4.45-5.57-6.44-12.1-8-19l1-2z" fill="#FBF9F9"/>
<path transform="translate(896,345)" d="m0 0c3.42 1.46 5.39 3.39 8 6 1.84 1.33 3.71 2.6 5.61 3.85 0.46 0.38 0.92 0.76 1.39 1.15v2h2v2c-3.44-1.24-6.25-2.56-9-5v-2h-2v-2l-4-1v-3h-2v-2z" fill="#FBF9F9"/>
<path transform="translate(985,156)" d="m0 0h2l1 7h9v2c-4.63 1.02-8.34 0.84-13 0l1-9z" fill="#DF191F"/>
<path transform="translate(814,291)" d="m0 0c0.99 0.33 1.98 0.66 3 1l1 14c-3-2-3-2-3.69-4.12-0.39-3.66-0.37-7.2-0.31-10.9z" fill="#FBF9F9"/>
<path transform="translate(848,96)" d="m0 0 2 1-2 11h-2v-3h-2l-1-4h3v-2h2v-3z" fill="#DE191F"/>
<path transform="translate(942,367)" d="m0 0h12v2c0.99 0.33 1.98 0.66 3 1h-14l-1-3z" fill="#FBF9F9"/>
<path transform="translate(876,179)" d="m0 0c-2.05 2.25-3.01 3-6 4-0.47 0.5-0.95 0.99-1.44 1.5-1.81 1.74-3.12 2.08-5.56 2.5 2.48-4.46 7.1-11 13-8z" fill="#FBFAFA"/>
<path transform="translate(817,246)" d="m0 0h2l-2 13c-0.99 0.33-1.98 0.66-3 1 0.41-4.97 0.8-9.45 3-14z" fill="#FBFAFA"/>
<path transform="translate(952,265)" d="m0 0c-0.57 0.28-1.13 0.55-1.71 0.84-3.13 1.59-6.14 3.37-9.17 5.14-2.12 1.02-2.12 1.02-5.12 1.02v-2c10.4-5.74 10.4-5.74 16-5z" fill="#FCFAFA"/>
<path transform="translate(807,249)" d="m0 0v7c-4 0-4 0-6-1 2.15-6 2.15-6 6-6z" fill="#F11D23"/>
<path transform="translate(850,195)" d="m0 0 1 2h-2v2c-6.62 4-6.62 4-10 4 1.23-2.47 2.81-3.36 5-5l1-2c2.56-0.62 2.56-0.62 5-1z" fill="#FCEFEF"/>
<path transform="translate(1063,192)" d="m0 0 4 4c-0.99 0.33-1.98 0.66-3 1v4c-0.99-0.33-1.98-0.66-3-1v-5l-2-1 2-1 2 1v-2z" fill="#DE191F"/>
<path transform="translate(860,145)" d="M0 0 C2.77 2.5 4.64 4.19 5 8 C4.56 10.44 3.79 12.64 3 15 C2.49 13.25 2 11.5 1.5 9.75 C1.22 8.78 0.94 7.8 0.66 6.8 C0 4 0 4 0 0 Z " fill="#F31F23"/>
<path transform="translate(832,86)" d="m0 0h2c0.08 4.52 0.1 8.59-1 13l-3-2c0.14-1.46 0.29-2.92 0.44-4.38 0.08-0.81 0.16-1.62 0.24-2.46 0.32-2.16 0.32-2.16 1.32-4.16zm0 2 1 2z" fill="#E31920"/>
<path transform="translate(1033,389)" d="m0 0v2c-0.58 0.12-1.15 0.25-1.75 0.38-2.27 0.63-4.18 1.51-6.25 2.62l-2-2 1-3c3.48-1.16 5.46-0.71 9 0z" fill="#F01C22"/>
<path transform="translate(1062,203)" d="m0 0c1.94 0.81 1.94 0.81 4 2l1 3-1 2h-5c-0.04-2-0.04-4 0-6l1-1z" fill="#DF191F"/>
<path transform="translate(931,320)" d="m0 0 11 1c-4.22 3.16-5.06 3.34-10 3l-1-4z" fill="#FC484A"/>
</svg>
